<?xml version="1.0" encoding="utf-8"?>
<!-- Generator: Adobe Illustrator 27.3.1, SVG Export Plug-In . SVG Version: 6.00 Build 0)  -->
<svg version="1.1" id="Layer_1" xmlns="http://www.w3.org/2000/svg" xmlns:xlink="http://www.w3.org/1999/xlink" x="0px" y="0px"
	 viewBox="0 0 1920 1080" style="enable-background:new 0 0 1920 1080;" xml:space="preserve">
<style type="text/css">
	.st0{fill:none;}
</style>
<path d="M218,887.05v-193.4h126.45v152.13l-34.55,41.51L218,887.05L218,887.05z M264.07,748.84v83.02h23.03l11.52-13.92v-69.1
	L264.07,748.84L264.07,748.84z"/>
<path d="M620.63,748.84v-55.19H494.18v165.99l-46.07-55.37l34.55-41.51v-69.11H355.97v193.4h46.07v-55.19l80.62,96.7h68.87
	l-34.54-41.51h103.64v-55.19h-80.62v-13.91h69.11l11.51-55.19h-80.62v-13.92H620.63z M402.04,776.44v-27.6h23.04L402.04,776.44z"/>
<path d="M678.22,845.54v41.51h-46.07v-193.4H758.6v193.4h-46.07v-41.51H678.22z M678.22,748.84v41.51h34.55v-41.51H678.22z"/>
<path d="M954.16,887.05h-46.07V776.44l-46.07,55.19l-46.07-55.19v110.62h-46.07v-193.4h46.31l46.07,55.19l46.07-55.19h46.07v193.4
	H954.16z"/>
<path d="M965.68,693.65h46.07v138.21h69.1v55.19H965.92v-193.4H965.68z"/>
<path d="M1138.2,887.05h-46.07v-193.4h46.07V887.05z"/>
<path d="M1195.79,776.44v110.62h-46.07v-193.4h46.07l34.55,41.51v-41.51h46.07v193.4h-46.07v-69.1L1195.79,776.44z"/>
<path d="M1333.76,831.86h80.62v55.19h-126.45v-193.4h126.45v55.19h-80.62v13.92h80.62l-11.52,55.19h-69.1L1333.76,831.86
	L1333.76,831.86z"/>
<path d="M1690.32,748.84v-55.19h-126.45v124.3h80.62v13.91h-80.62v28.07l-46.31-55.66l34.55-41.51v-69.11h-126.45v193.4h46.07
	v-55.19l80.14,96.7h69.1l-34.54-41.51h103.89V762.76h-80.62v-13.92H1690.32z M1471.73,776.44v-27.6h23.03L1471.73,776.44z"/>
<g>
	<path d="M1827.81,754.36c0.24,0.24,0,0.24-0.24,0.48c-4.32,0.48-8.64,0.96-12.72,1.92c-6,1.44-11.52,3.36-16.08,7.44
		c-4.32,3.6-6.72,8.4-8.4,13.68c-2.64,8.16-3.6,16.56-4.32,24.95c0,1.2-0.24,2.64-0.24,3.84c-0.48-3.12-0.72-6.24-0.96-9.36
		c-0.72-7.2-1.92-14.4-3.84-21.36c-2.88-10.08-9.36-16.32-19.44-19.2c-3.12-0.96-6.24-1.44-9.6-1.92c-0.72-0.24-1.2,0-1.2-0.48
		c-0.24,0-0.24,0-0.24,0c0.48-0.48,1.2-0.48,1.68-0.48c4.8-0.72,9.36-1.92,13.92-3.6c6.96-2.64,11.52-7.44,13.92-14.64
		c2.16-6.72,3.36-13.68,4.32-20.64c0.72-6.72,1.2-13.68,1.44-20.4h0.24v0.72c0.24,8.64,0.96,17.04,2.4,25.43
		c1.2,6.24,2.4,12.24,5.28,18c1.92,3.84,4.56,6.72,8.16,8.64c3.36,1.92,6.72,3.12,10.32,4.08
		C1817.25,752.92,1822.53,753.64,1827.81,754.36z"/>
	<path d="M1871,587.84c0,0.48-0.72,0.24-0.96,0.24c-1.2,0.24-2.64,0-3.84,0.24c-1.68,0-3.12,0.24-4.56,0.24
		c-6,0.48-12,1.44-17.76,3.12c-8.64,2.64-14.4,8.16-17.04,17.04c-1.68,6.48-2.88,12.96-3.84,19.44c-0.96,7.44-1.44,15.12-1.92,22.8
		c0,1.2,0.24,1.68,1.44,1.68c0,0.48-0.24,0.48-0.48,0.48c0,0-0.24,0-0.48,0c-0.24,0-0.48,0-0.48,0v-0.24h-0.24v0.48l-0.24-0.24
		c-4.8-0.24-9.36,0-14.16,0.24c-10.8,0.48-21.36,1.92-31.67,4.8c-4.32,1.44-8.64,2.88-12.72,4.8
		c-11.76,5.28-19.44,14.16-23.99,26.15c-5.04,13.2-7.2,27.11-8.88,41.03c-0.96,8.64-1.68,17.28-1.92,25.91
		c-0.72-0.24,0-0.96-0.48-1.2c0-1.2-0.24-2.64-0.24-3.84c-0.48-12.48-1.68-24.95-4.08-37.19c-1.68-9.36-4.08-18.48-8.16-27.11
		c-3.6-7.68-8.88-13.44-16.32-17.52c-6.72-3.84-13.92-6.72-21.36-8.88c-13.68-4.08-27.35-6.24-41.51-7.92
		c0-0.48,0.72-0.24,0.96-0.24c2.4-0.24,4.56,0,6.72-0.24c5.76,0,11.76-0.48,17.52-1.2c8.88-0.96,17.76-3.12,26.15-6.48
		c11.52-4.8,20.16-12.72,24.95-24.47c0.96-2.4,2.16-4.56,2.88-6.96c5.28-15.36,7.92-31.43,9.84-47.51
		c1.44-11.52,2.16-23.03,2.64-34.55c0.72,0,0.24,0.72,0.48,0.96c0.24,12,0.72,23.99,1.92,35.75c1.2,11.28,2.64,22.32,5.04,33.35
		c1.68,7.2,3.84,14.4,6.96,21.36c2.88,6.24,7.2,11.04,13.68,14.16c4.56,1.92,9.12,4.08,13.92,5.52
		c16.56,5.28,33.83,8.16,51.11,10.32c0.72,0,0.96-0.24,0.96-0.96c-0.24-4.8-0.48-9.6-0.96-14.4c-0.96-8.4-2.16-16.56-4.8-24.71
		c-3.36-11.04-10.56-18-21.6-21.12c-4.56-1.44-9.36-2.16-14.16-2.64c-0.24-0.24-0.72,0-1.2,0c0.48-0.48,1.2-0.48,1.68-0.48
		c4.8-0.72,9.6-1.68,14.16-3.12c8.64-2.88,15.6-7.68,19.2-16.56c1.92-5.04,3.6-10.32,4.56-15.6c1.44-6.48,2.16-12.96,2.64-19.68
		c0.72,0,0.48,0.72,0.48,0.96c0,1.44-0.24,2.64,0,4.08c0.24,5.76,0.72,11.52,1.68,17.04c0.96,5.52,2.16,11.04,4.8,16.08
		c1.92,3.36,4.32,5.76,7.68,7.44c2.16,1.2,4.32,2.16,6.48,2.88C1851.08,584.96,1860.92,586.64,1871,587.84z"/>
	<path d="M1820.85,654.3v-0.72c0,0,0.24,0,0.24-0.24C1821.09,653.58,1821.09,653.82,1820.85,654.3z"/>
	<path d="M1821.09,653.1v0.24c0,0.24-0.24,0.24-0.24,0.24v-0.48L1821.09,653.1L1821.09,653.1z"/>
	<path d="M1821.09,653.1v0.24c0,0.24-0.24,0.24-0.24,0.24v-0.48L1821.09,653.1L1821.09,653.1z"/>
</g>
<g>
	<path d="M274.87,660.06c-14.16,1.68-27.83,3.84-41.51,7.92c-7.44,2.16-14.64,5.04-21.36,8.88c-7.44,4.08-12.72,9.84-16.32,17.52
		c-4.08,8.64-6.48,17.76-8.16,27.11c-2.4,12.24-3.6,24.71-4.08,37.19c0,1.2-0.24,2.64-0.24,3.84c-0.48,0.24,0.24,0.96-0.48,1.2
		c-0.24-8.64-0.96-17.28-1.92-25.91c-1.68-13.92-3.84-27.83-8.88-41.03c-4.56-12-12.24-20.88-23.99-26.15
		c-4.08-1.92-8.4-3.36-12.72-4.8c-10.32-2.88-20.88-4.32-31.67-4.8c-4.8-0.24-9.36-0.48-14.16-0.24l-0.24,0.24v-0.72h-0.24
		c0,0.24,0,0.48,0,0.48l0,0c-0.24-0.24-0.24-0.24-0.48-0.24s-0.48,0-0.48,0c-0.24,0-0.48,0-0.48-0.48c1.2,0,1.44-0.48,1.44-1.68
		c-0.48-7.68-0.96-15.36-1.92-22.79c-0.96-6.48-2.16-12.96-3.84-19.44c-2.64-8.88-8.4-14.4-17.04-17.04
		c-5.76-1.68-11.76-2.64-17.76-3.12c-1.44,0-2.88-0.24-4.56-0.24c-1.2-0.24-2.64,0-3.84-0.24c-0.24,0-0.96,0.24-0.96-0.24
		c10.08-1.2,19.92-2.88,29.51-6.24c2.16-0.72,4.32-1.68,6.48-2.88c3.36-1.68,5.76-4.08,7.68-7.44c2.64-5.04,3.84-10.56,4.8-16.08
		c0.96-5.52,1.44-11.28,1.68-17.04c0.24-1.44,0-2.64,0-4.08c0-0.24-0.24-0.96,0.48-0.96c0.48,6.72,1.2,13.2,2.64,19.68
		c0.96,5.28,2.64,10.56,4.56,15.6c3.6,8.88,10.56,13.68,19.2,16.56c4.56,1.44,9.36,2.4,14.16,3.12c0.48,0,1.2,0,1.68,0.48
		c-0.48,0-0.96-0.24-1.2,0c-4.8,0.48-9.6,1.2-14.16,2.64c-11.04,3.12-18.24,10.08-21.6,21.12c-2.64,8.16-3.84,16.32-4.8,24.71
		c-0.48,4.8-0.72,9.6-0.96,14.4c0,0.72,0.24,0.96,0.96,0.96c17.28-2.16,34.55-5.04,51.11-10.32c4.8-1.44,9.36-3.6,13.92-5.52
		c6.48-3.12,10.8-7.92,13.68-14.16c3.12-6.96,5.28-14.16,6.96-21.36c2.4-11.04,3.84-22.08,5.04-33.35
		c1.2-11.76,1.68-23.75,1.92-35.75c0.24-0.24-0.24-0.96,0.48-0.96c0.48,11.52,1.2,23.03,2.64,34.55
		c1.92,16.08,4.56,32.15,9.84,47.51c0.72,2.4,1.92,4.56,2.88,6.96c4.8,11.76,13.44,19.68,24.95,24.47
		c8.4,3.36,17.28,5.52,26.15,6.48c5.76,0.72,11.76,1.2,17.52,1.2c2.16,0.24,4.32,0,6.72,0.24
		C274.15,659.82,274.87,659.58,274.87,660.06z"/>
	<path d="M159.21,762.04c0.24,0,0.48,0,0.48,0v0.24h-1.68c-3.36,0.48-6.48,0.96-9.6,1.92c-10.08,2.88-16.56,9.12-19.44,19.2
		c-1.92,6.96-3.12,14.16-3.84,21.36c-0.24,3.12-0.48,6.24-0.96,9.36c0-1.2-0.24-2.64-0.24-3.84c-0.72-8.4-1.68-16.8-4.32-24.95
		c-1.68-5.28-4.08-10.08-8.4-13.68c-4.56-4.08-10.08-6-16.08-7.44c-4.08-0.96-8.4-1.44-12.72-1.92c-0.24-0.24-0.48-0.24-0.24-0.48
		c5.28-0.72,10.56-1.44,15.6-2.88c3.6-0.96,6.96-2.16,10.32-4.08c3.6-1.92,6.24-4.8,8.16-8.64c2.88-5.76,4.08-11.76,5.28-18
		c1.44-8.4,2.16-16.8,2.4-25.43v-0.72h0.24c0.24,6.72,0.72,13.68,1.44,20.4c0.96,6.96,2.16,13.92,4.32,20.64
		c2.4,7.2,6.96,12,13.92,14.64c4.56,1.68,9.12,2.88,13.92,3.6c0.48,0,1.2,0,1.68,0.48C159.45,761.8,159.45,761.8,159.21,762.04
		C159.21,761.8,159.21,762.04,159.21,762.04z"/>
	<path d="M89.15,660.3v0.72h-0.24l0,0C88.91,660.78,88.91,660.54,89.15,660.3L89.15,660.3z"/>
	<path d="M89.15,660.3v1.2c0-0.24-0.24-0.48-0.24-0.48l0,0C88.91,660.78,88.91,660.54,89.15,660.3L89.15,660.3z"/>
</g>
<path d="M801.79,381.72c-0.96,0-1.68,0-2.64,0c0.48,0.48,0.72,0.96,0.96,1.44c0.48,0,1.2,0,1.68,0s1.2,0,1.2-0.48
	C802.99,381.48,802.27,381.48,801.79,381.72z"/>
<path class="st0" d="M1167.23,414.83c-26.39-8.64-52.07-16.8-77.74-25.19c-6.96-2.16-13.92-4.32-20.64-6.96
	c-2.16-0.96-4.8-4.08-4.8-6c-0.24-29.75-0.24-59.75,0-89.5c0-0.72,0.48-1.44,0.72-2.16
	C1111.57,294.14,1166.51,363.01,1167.23,414.83z"/>
<path class="st0" d="M1064.54,616.87c-0.24-2.16-0.48-4.32-0.48-6.48c0-27.59,0-55.19,0-82.78c0-4.8,0.96-7.68,6-9.12
	c30.71-9.6,61.43-19.68,92.14-29.75c1.44-0.48,3.12-0.72,4.8-0.96C1169.87,533.61,1111.33,607.51,1064.54,616.87z"/>
<path class="st0" d="M980.79,268.71c-2.64,3.84-4.08,6.24-5.76,8.4c-13.2,18.24-26.63,36.47-39.59,54.95
	c-2.88,4.08-5.52,5.28-10.32,3.6c-36.23-12-72.46-23.99-108.7-35.75c-4.8-1.44-6.48-3.84-6.48-8.88
	c-0.24-22.56-0.48-22.56,22.08-22.56c46.07,0,91.9,0,137.97,0C972.88,268.71,975.76,268.71,980.79,268.71z"/>
<path class="st0" d="M979.83,631.99c-3.36,0.24-6,0.48-8.88,0.48c-50.39,0-100.78,0-151.41,0.24c-7.2,0-10.32-1.2-10.08-9.6
	c0.48-19.68,0-19.68,18.72-25.91c31.91-10.56,64.07-20.88,95.98-31.43c3.84-1.2,6.96-2.16,10.08,2.16
	c14.4,20.16,29.03,40.31,43.67,60.47C978.87,629.11,979.11,630.31,979.83,631.99z"/>
<path d="M1224.58,433.55c-6.48-1.92-9.12-5.04-9.84-12c-10.07-91.18-57.82-153.32-144.45-184.28c-5.51-1.92-6.95-4.8-6.95-10.31
	c0.24-20.4,0.24-40.8,0-61.19c0-2.4-0.24-4.8-0.72-9.12c-3.36,4.32-5.28,6.72-7.2,9.36c-11.52,16.08-23.76,31.91-34.79,48.23
	c-5.28,7.68-10.8,11.76-20.4,9.84c-6.24-1.2-12.72-0.96-19.2-0.96H763.4v59.98c-15.59-5.04-29.51-9.59-45.83-14.87
	c3.12,4.56,4.56,6.96,6,9.11c21.84,30,43.43,59.99,65.27,89.99c0,2.39,0,4.79,0.48,7.19c0,0.48,0.24,0.96,0.72,0.72
	c3.6-1.92,1.92,1.2,2.4,2.4c0.72,1.68,1.2,3.6,3.59,3.6c0.96,0,2.16,0.24,3.12,0.48c0.96,0,1.68,0.24,2.64,0c0.48,0,1.44,0,1.2,0.72
	c0,0.72-0.72,0.48-1.2,0.48h-1.68c-0.96,0-1.92,0.48-1.92,2.16c0,0.48-0.24,0.96-0.96,0.96c-1.68-0.24-1.68,0.96-1.68,1.92
	c0.48,5.04-0.96,10.08-0.72,15.12c0,1.2-0.47,1.92-1.43,1.92c-2.88,0-5.76,0.72-8.64-0.48c-1.44-0.48-2.4-0.24-2.16,1.68
	c0,0.72,0.48,1.92-0.48,2.16c-1.44,0.72-1.68,1.92-1.68,3.36v14.39c0,4.08,0.48,4.56,4.56,4.56c7.68,0,15.35-0.24,22.79,0
	c1.68,0,4.8-0.48,4.56,3.36c0,0.96,0.72,4.08,3.6,3.36c0,0,0.24,0.24,0.48,0.48c-0.96,0.72-1.92,0.24-2.88,0.24
	c-9.84,0-19.67,0-29.27,0.24c-1.68,0-4.08-1.2-4.8,1.68c0,0.24-0.72,0.24-1.2,0.24c-17.28,0.72-34.55,1.44-52.07,2.4
	c-1.2,0-1.92-0.24-1.68-1.44c0-1.2-0.72-2.64-1.44-2.16c-1.68,0.48-2.64-0.24-3.84-0.72c-2.88-0.96-4.08,2.88-6.96,2.16
	c-0.48-0.24-0.24,1.44-0.48,2.4c0,0.48-0.24,0.72-0.72,0.72c-2.16-0.96-3.6,0.96-5.52,0.96c-5.27,0-10.55,0-16.07,0.24
	c-1.2,0-2.4-1.2-3.6-0.48c-1.68,0.96-3.6,0.96-5.52,0.96c-4.56,0-9.36,0-13.92,0.48c-2.4,0.24-5.04-0.24-7.44,0.48
	c-0.24,0.24-0.24,0.48,0,0.72h0.72c1.92,0.24,3.6-0.48,5.28,0.24c0.24,0.24,0.72,0.24,0.96,0.24c6.72,0.96,13.68-0.96,20.4,1.44
	c0.24,0,0.48,0,0.48,0c2.16-1.2,4.56-0.48,6.96-0.48c5.76,0,11.27,0,16.79,0.72c0.24,0,0.72,0.24,0.72,0.24
	c-0.72,2.88,2.4,2.16,3.36,3.36c2.64,3.12,5.52,0,8.4,0.48c0.48,0,1.2-0.72,1.2-1.44c-0.24-1.92,0.72-2.16,2.4-2.16
	c16.32,0.72,32.87,1.2,49.19,1.68c7.2,0.24,14.64,0.48,21.83,0.72c1.44,0,2.16,0.24,1.92,1.92c-0.24,2.16,2.64,2.4,2.4,4.56
	c2.16,0,1.68,1.91,1.2,2.87c-0.48,1.44-0.24,2.4,0.24,3.84c-6.72,0-13.19,0.24-19.67,0c-2.64,0-3.6,1.2-4.08,3.12
	c-0.24,0.72,0,1.2-1.2,1.44c-1.44,0.24-2.4,2.64-1.44,3.36c1.2,0.96,1.68,2.64,2.64,3.6c1.2,1.2,3.6,0.48,5.28,0.48
	c3.84,0.24,7.68,0.24,11.51,0.24c0.72,0,1.44-0.24,1.92,0.48c-9.11,14.88-10.31,29.99-3.59,45.11
	c-19.44,26.64-38.88,53.51-58.07,80.14c-6.24,8.64-12.48,17.52-18.72,26.16c0.48,0.72,0.48,0.72,0.96,1.44
	c14.16-4.56,28.32-9.12,43.43-13.92c0.24,3.6,0.48,6.24,0.48,9.12c0,13.92,0.24,28.07,0,41.99c-0.24,6.72,1.68,9.36,8.88,9.12
	c16.56-0.48,32.87-0.24,49.43-0.24c55.19,0,110.38,0.96,165.56-0.72c18.72-0.48,30.96,2.88,40.55,19.67
	c9.36,16.32,21.84,30.72,33.12,46.07c1.2-0.48,1.2-0.48,2.4-0.72c0-21.11,0.48-42.23-0.24-63.34c-0.48-9.36,2.64-13.2,11.51-16.56
	c76.79-28.55,122.38-83.5,137.49-164.12c1.68-9.12,0.24-20.64,5.28-26.4c5.52-6.24,17.04-6.72,26.16-9.84
	c10.08-3.35,20.15-6.95,30.23-10.31C1257.21,444.11,1240.9,438.35,1224.58,433.55z M1064.3,287.18c0-0.72,0.48-1.44,0.72-2.16
	c46.79,9.36,101.73,78.47,102.45,130.05c-26.63-8.87-52.3-17.27-77.98-25.43c-6.96-2.16-13.92-4.32-20.39-6.96
	c-2.16-0.96-4.8-4.08-4.8-6C1064.06,346.93,1064.06,316.94,1064.3,287.18z M831.79,268.71h149c-2.63,3.84-4.07,6.24-5.75,8.39
	c-13.2,18.24-26.64,36.48-39.6,54.95c-2.88,4.08-5.51,5.28-10.31,3.6c-36.24-12-72.47-23.99-108.7-35.75
	c-4.8-1.44-6.48-3.84-6.48-8.88C809.47,268.71,809.47,268.71,831.79,268.71z M971.2,632.47c-50.39,0-100.78,0-151.17,0.24
	c-7.2,0-10.32-1.2-10.08-9.6c0.48-19.68,0-19.68,18.72-25.92c31.91-10.55,64.06-20.87,95.98-31.43c3.84-1.2,6.96-2.16,10.07,2.16
	c14.4,20.16,29.04,40.31,43.67,60.47c0.48,0.72,0.96,1.92,1.68,3.6C976.48,632.23,973.84,632.47,971.2,632.47z M1064.54,616.87
	c-0.24-2.16-0.48-4.32-0.48-6.48c0-27.59,0-55.19-0.24-82.78c0-4.8,0.96-7.68,6-9.12c30.71-9.6,61.42-19.67,92.14-29.75
	c1.43-0.48,3.11-0.72,4.79-0.96C1169.87,533.61,1111.33,607.51,1064.54,616.87z M1192.43,450.11c-2.88,0.96-5.76,2.16-8.64,3.12
	c-46.31,16.55-92.62,33.35-138.69,49.91c-1.2,0.48-1.68,0.96-1.68,2.39c-1.68,51.11-3.36,102.46-5.04,153.57c0,0.72,0,1.2-0.24,2.16
	c-33.11-42.23-65.74-84.22-98.62-126.45c-51.35,14.16-102.93,28.31-154.52,42.47c0.48-0.72,0.72-1.2,0.96-1.68
	c29.03-41.99,58.3-84.22,87.58-126.21c0.96-1.44,0.96-2.4,0-3.6c-27.84-41.99-55.67-83.98-83.5-125.97
	c-0.24-0.24-0.24-0.48-0.48-0.72s0.24-1.2,0.48-2.16c0.72,0.24,1.68,0.48,2.4,0.72c47.99,15.83,96.21,31.91,144.2,47.75
	c1.68,0.48,2.64,0.48,3.84-1.2c30.96-40.08,61.91-80.15,93.1-120.22c0.48-0.48,0.72-0.96,1.2-1.44c2.88,0.72,2.88,0.72,2.88,3.36
	c0.96,50.39,1.92,101.02,2.88,151.41c0,1.68,0.48,2.16,1.92,2.64c49.19,16.31,98.62,32.63,147.81,48.95
	c0.72,0.24,1.44,0.48,2.16,0.72C1192.43,449.87,1192.43,449.87,1192.43,450.11z"/>
<path d="M1031.9,405.96c-0.96-47.51-1.92-94.78-2.88-142.53c-0.72,0.96-1.2,1.44-1.44,1.92c-28.07,36.47-56.38,72.7-84.46,109.17
	c-0.96,1.2-1.92,1.68-3.6,1.2c-43.43-14.39-87.1-28.79-130.53-43.19c-0.72-0.24-1.2-0.48-2.4-0.72c0.48,0.96,0.96,1.44,1.2,1.92
	c24.96,37.91,50.15,75.59,75.11,113.5c0.96,1.44,0.72,2.16,0,3.36c-19.92,28.55-39.6,57.1-59.51,85.66
	c-5.76,8.88-12,17.99-18.72,27.59c1.2-0.24,1.92-0.48,2.4-0.72c44.39-12.24,88.78-24.47,133.17-36.71c1.68-0.48,2.4-0.24,3.6,1.2
	c28.32,36.23,56.63,72.7,84.94,108.94c0.48,0.48,0.96,0.96,1.44,1.92c0-0.96,0.24-1.68,0.24-2.16c1.44-45.35,3.12-90.7,4.56-136.05
	c0-1.44,0.48-2.16,1.92-2.64c42.71-15.36,85.42-30.72,127.89-46.07c0.72-0.24,1.2-0.48,2.16-0.96
	C1121.64,435.47,1077.01,420.83,1031.9,405.96z M1126.2,451.79c-12.23,4.08-24.47,8.15-36.95,12.23
	c-21.11,6.96-42.47,14.16-64.07,20.64c-5.99,1.92-7.67,4.8-7.67,10.8c0.24,32.39,0,64.78,0,97.18v8.87
	c-0.72,0.24-1.44,0.48-2.16,0.72c-7.68-10.31-15.36-20.87-23.04-31.19c-13.2-18.24-26.63-36.47-39.59-55.19
	c-3.6-5.28-6.96-5.76-12.48-3.84c-31.19,10.32-62.38,20.64-93.82,30.72c-2.4,0.72-4.8,1.2-9.11,2.4c2.64-4.08,4.31-6.72,5.99-8.88
	c19.2-26.4,38.16-53.03,57.59-79.18c3.36-4.56,3.36-7.68,0-12.24c-19.43-26.16-38.39-52.79-57.59-79.18c-1.68-2.4-3.11-4.8-6.23-9.6
	c13.67,4.32,24.71,7.68,35.75,11.28c22.31,7.19,44.63,14.39,66.7,22.07c6.24,2.16,9.6,1.44,13.68-4.32
	c18.72-26.63,38.15-53.03,57.35-79.42c1.44-1.92,3.12-3.84,6-7.68c0.24,4.8,0.72,7.68,0.72,10.32c0,32.63,0.24,65.5,0,98.14
	c0,6,1.68,8.87,7.67,10.79c31.2,9.84,62.15,19.92,93.1,30c2.88,0.96,5.52,1.92,8.16,2.88V451.79z"/>
<g>
	<path d="M967.36,508.65c0-1.44,0.24-3.12,0.24-4.56c0.24-5.52,0.48-11.04,0.96-16.32c0-1.44,0.24-3.12,0.24-4.56
		c0.24-2.16-1.68-3.36-3.36-3.12c-3.12,0.48-6,1.2-9.12,1.68c-4.8,0.72-9.36,1.68-14.16,2.4c-0.72,0.24-1.44,0.24-2.16,0.48
		c0-0.24,0-0.48,0.24-0.48c0.96-2.88,2.16-5.76,3.12-8.64c0.48-1.2,0.24-1.92-0.72-2.64c-9.12-7.44-18.48-14.88-27.59-22.32
		l-0.24-0.24c0-0.24,0.24-0.24,0.48-0.24c1.92-0.96,3.84-1.68,5.52-2.64c1.2-0.48,1.68-1.44,1.2-2.88
		c-1.68-5.52-3.6-10.8-5.28-16.32c0-0.24,0-0.24-0.24-0.48c0.96,0.24,1.68,0.48,2.64,0.48c4.56,0.96,8.88,1.92,13.44,2.88
		c1.2,0.24,1.92-0.24,2.4-1.2c0.96-2.16,1.92-4.56,2.88-6.72c0-0.24,0.24-0.24,0.24-0.48c0.24,0.48,0.72,0.72,0.96,0.96
		c3.84,4.08,7.68,8.16,11.52,12.24c0.72,0.96,1.68,0.96,2.64,0.48c0.72-0.48,0.96-1.2,0.96-1.92c-0.48-2.4-0.96-5.04-1.44-7.44
		c-1.2-6-2.4-12.24-3.6-18.24c-0.24-1.68-0.72-3.6-0.96-5.28v-0.24c0.24,0,0.24,0,0.48,0.24c2.88,1.68,6,3.36,8.88,5.28
		c1.44,0.72,2.4,0.48,3.12-0.96c3.12-6.24,6.24-12.48,9.6-18.72c0-0.24,0.24-0.24,0.24-0.48c0.24,0,0.24,0.24,0.24,0.48
		c3.12,6.24,6.48,12.48,9.6,18.72c0.24,0.48,0.48,0.72,0.72,0.96c0.72,0.48,1.44,0.48,2.16,0c3.12-1.68,6-3.6,9.12-5.28
		c0.24,0,0.24-0.24,0.48-0.24c-0.24,1.2-0.48,2.16-0.72,3.36c-1.2,6.24-2.4,12.48-3.6,18.72c-0.48,2.88-1.2,6-1.68,8.88
		c0,0.48-0.24,0.96,0,1.44c0.48,1.44,2.16,1.68,3.36,0.72c1.68-1.68,3.12-3.36,4.8-5.04c2.4-2.64,5.04-5.28,7.44-7.92
		c0,0,0.24-0.24,0.24-0.48c0.72,1.68,1.44,3.12,1.92,4.56c0.48,0.96,0.72,1.68,1.2,2.64c0.48,0.96,1.2,1.44,2.4,1.2
		c4.8-0.96,9.6-2.16,14.4-3.12c0.48,0,0.96-0.24,1.68-0.24c-0.48,1.68-1.2,3.36-1.68,5.28c-1.2,3.84-2.64,7.68-3.84,11.76
		c-0.48,1.2,0,2.16,1.2,2.64c1.92,0.96,3.84,1.68,5.76,2.64c0.24,0,0.24,0.24,0.48,0.24c-1.2,0.96-2.4,1.92-3.36,2.88
		c-8.16,6.72-16.32,13.2-24.71,19.92c-0.72,0.72-0.96,1.44-0.72,2.4c0.96,2.88,2.16,6,3.12,8.88c0,0.24,0.24,0.24,0.24,0.48
		c-1.68-0.24-3.36-0.48-5.04-0.96c-4.8-0.72-9.36-1.68-14.16-2.4c-2.16-0.48-4.32-0.72-6.24-1.2c-1.68-0.24-3.36,0.96-3.36,2.88
		c0,2.4,0.24,4.56,0.24,6.96c0.24,2.88,0.24,5.76,0.48,8.64c0.24,3.36,0.24,6.96,0.48,10.32v0.24
		C971.2,508.65,969.28,508.65,967.36,508.65z"/>
</g>
<path d="M817.39,251.91"/>
<path d="M817.39,245.19"/>
</svg>
