<?xml version="1.0" encoding="utf-8"?>
<!-- Generator: Adobe Illustrator 27.3.1, SVG Export Plug-In . SVG Version: 6.00 Build 0)  -->
<svg version="1.1" id="Layer_1" xmlns="http://www.w3.org/2000/svg" xmlns:xlink="http://www.w3.org/1999/xlink" x="0px" y="0px"
	 viewBox="0 0 1920 1080" style="enable-background:new 0 0 1920 1080;" xml:space="preserve">
<style type="text/css">
	.st0{fill:#F2F2F2;}
</style>
<path class="st0" d="M1238.5,505.81c-9.47,3.05-18.95,6.08-28.42,9.15c-2.65,0.86-5.35,1.51-8.07,2.12
	c-3.08,0.69-6.16,1.33-9.18,2.27c-1.6,0.5-3.16,1.07-4.66,1.84c-1.11,0.56-2.16,1.22-3.12,2.01c-1.26,1.05-2.24,2.32-2.95,3.81
	c-0.7,1.48-1.15,3.04-1.45,4.64c-0.39,2.09-0.63,4.21-0.77,6.34c-0.18,2.62-0.31,5.25-0.71,7.86c-0.24,1.55-0.5,3.09-0.82,4.62
	c-2.87,13.56-6.82,26.78-12.17,39.56c-6.31,15.07-14.37,29.1-24.39,41.96c-8.58,11.02-18.34,20.84-29.18,29.57
	c-11.47,9.23-23.85,16.99-36.95,23.59c-9.75,4.91-19.79,9.1-30.07,12.74c-1.34,0.48-2.68,0.97-3.99,1.52
	c-0.91,0.38-1.79,0.85-2.65,1.34c-3.51,2.02-5.3,5.14-5.6,9.17c-0.07,1-0.07,2-0.06,3c0.03,1.63,0.1,3.26,0.14,4.88
	c0.09,3.57,0.24,7.14,0.25,10.71c0.02,10.15-0.02,20.3-0.05,30.45c-0.01,3.45-0.03,6.89-0.05,10.34c0,0.44,0,0.88-0.02,1.32
	c-0.02,0.52-0.2,0.75-0.74,0.93c-0.47,0.16-0.94,0.3-1.43,0.45c-0.19-0.19-0.37-0.35-0.53-0.54c-5.14-6.34-10.28-12.69-15.41-19.03
	c-3.05-3.78-6.06-7.6-8.93-11.53c-2.58-3.52-5.06-7.11-7.36-10.83c-1.42-2.28-2.97-4.46-4.74-6.48
	c-4.66-5.33-10.44-8.73-17.29-10.28c-2.78-0.63-5.59-1-8.44-1.18c-3.52-0.23-7.04-0.27-10.57-0.06c-0.31,0.02-0.62,0.03-0.93,0.03
	c-7.42,0.16-14.84,0.33-22.25,0.48c-4.02,0.08-8.04,0.15-12.06,0.19c-6.68,0.07-13.35,0.14-20.03,0.16
	c-27.89,0.08-55.77-0.03-83.66-0.17c-17.19-0.09-34.38-0.1-51.57-0.14c-5.32-0.01-10.63,0.03-15.95,0.22
	c-0.99,0.04-1.98,0.03-2.97,0.06c-1.12,0.03-2.22-0.12-3.31-0.35c-0.54-0.11-1.07-0.31-1.57-0.54c-1.18-0.54-1.99-1.47-2.43-2.7
	c-0.23-0.65-0.43-1.31-0.45-2.01c-0.03-0.88-0.09-1.75-0.06-2.63c0.22-9.08,0.21-18.17,0.13-27.25c-0.03-3.19-0.04-6.39-0.05-9.58
	c-0.01-2.07-0.02-4.13-0.28-6.19c-0.13-1.05-0.19-2.12-0.29-3.17c-0.01-0.14-0.29-0.33-0.41-0.31c-0.18,0.04-0.36,0.09-0.54,0.14
	c-2.07,0.62-4.14,1.25-6.21,1.87c-11.19,3.38-22.37,6.75-33.56,10.13c-0.47,0.14-0.95,0.25-1.38,0.37
	c-0.56-0.21-0.82-0.63-1.04-1.08c-0.05-0.1-0.06-0.27-0.01-0.36c0.31-0.47,0.63-0.93,0.97-1.37c3.14-4.11,6.27-8.23,9.44-12.32
	c12.54-16.23,25.09-32.45,37.64-48.66c8.55-11.04,17.1-22.07,25.65-33.11c1.12-1.45,1.05-1.2,0.32-2.81
	c-1.34-2.97-2.37-6.05-3.02-9.25c-0.61-3.02-0.85-6.07-0.73-9.15c0.24-5.86,1.84-11.34,4.44-16.55c0.72-1.45,1.56-2.84,2.35-4.26
	c0.18-0.33,0.36-0.65,0.53-0.99c0.1-0.19-0.07-0.5-0.31-0.58c-0.18-0.06-0.35-0.13-0.53-0.15c-0.18-0.03-0.37-0.01-0.56-0.01
	c-3.28-0.04-6.55-0.1-9.83-0.13c-1.36-0.01-2.72,0.05-4.08,0.06c-0.49,0.01-0.99,0.01-1.48-0.02c-0.73-0.03-1.29-0.39-1.74-0.96
	c-0.15-0.19-0.3-0.4-0.43-0.61c-0.54-0.92-1.13-1.79-1.92-2.52c-0.41-0.37-0.44-0.89-0.28-1.39c0.21-0.68,0.61-1.23,1.28-1.52
	c0.23-0.1,0.49-0.13,0.69-0.25c0.2-0.12,0.41-0.3,0.51-0.51c0.19-0.39,0.28-0.83,0.44-1.23c0.59-1.49,1.68-2.28,3.27-2.33
	c0.56-0.02,1.11,0,1.67,0c5.56,0,11.13,0,16.69,0c0.31,0,0.62-0.02,0.93-0.04c0.18-0.01,0.37-0.21,0.33-0.36
	c-0.38-1.31-0.36-2.59,0.26-3.83c0.03-0.05,0.04-0.12,0.06-0.18c0.15-0.58-0.03-1.23-0.58-1.44c-0.58-0.22-0.91-0.56-1.12-1.13
	c-0.1-0.28-0.33-0.53-0.54-0.75c-0.25-0.28-0.54-0.52-0.81-0.77c-0.52-0.49-0.84-1.07-0.8-1.82c0.07-1.23-0.52-1.44-1.39-1.58
	c-0.49-0.08-0.99-0.07-1.48-0.08c-5.38-0.17-10.75-0.34-16.13-0.51c-7.42-0.24-14.83-0.48-22.25-0.74
	c-5.31-0.18-10.63-0.39-15.94-0.58c-1.11-0.04-2.23-0.06-3.34-0.1c-2.9-0.1-5.81-0.22-8.71-0.32c-0.86-0.03-1.73-0.05-2.6-0.05
	c-0.31,0-0.63,0.02-0.91,0.12c-0.42,0.15-0.77,0.43-0.84,0.91c-0.06,0.37-0.06,0.75-0.12,1.12c-0.13,0.7-0.58,1.11-1.27,1.11
	c-1-0.01-1.97,0.11-2.93,0.41c-0.47,0.14-0.97,0.22-1.45,0.3c-1.09,0.19-2.13-0.02-2.96-0.75c-0.73-0.63-1.54-1.02-2.43-1.29
	c-0.23-0.07-0.47-0.16-0.68-0.29c-0.39-0.23-0.67-0.55-0.73-1.03c-0.02-0.19-0.04-0.37-0.05-0.56c-0.02-0.38-0.28-0.55-0.58-0.63
	c-0.36-0.1-0.73-0.14-1.09-0.19c-4.31-0.49-8.63-0.6-12.96-0.67c-1.67-0.03-3.34-0.06-5.01-0.1c-1.55-0.04-3.1-0.11-4.45,0.7
	c-0.94-0.24-1.77-0.48-2.61-0.67c-2.12-0.49-4.29-0.57-6.45-0.6c-0.93-0.01-1.85,0.06-2.78,0.07c-1.85,0.03-3.71,0.09-5.56,0.07
	c-1.3-0.01-2.59-0.12-3.84-0.54c-0.89-0.3-1.83-0.24-2.76-0.23c-0.86,0.01-1.73,0-2.59-0.03c-0.16-0.01-0.32-0.16-0.46-0.26
	c-0.13-0.1-0.11-0.2,0-0.31c0.23-0.24,0.52-0.34,0.83-0.37c0.8-0.07,1.6-0.16,2.4-0.15c2.04,0.03,4.08-0.06,6.11-0.2
	c1.79-0.12,3.58-0.1,5.38-0.13c2.29-0.04,4.57-0.06,6.86-0.1c0.62-0.01,1.23-0.06,1.85-0.11c0.81-0.06,1.6-0.21,2.32-0.6
	c0.77-0.42,1.54-0.42,2.33-0.13c0.71,0.27,1.44,0.31,2.19,0.31c4.64-0.05,9.27-0.1,13.91-0.13c1.06-0.01,2.1-0.12,3.09-0.51
	c1.11-0.43,2.24-0.7,3.44-0.44c0.2,0.04,0.52-0.2,0.56-0.41c0.08-0.49,0.14-0.99,0.2-1.48c0.04-0.35,0.21-0.55,0.61-0.54
	c0.91,0.01,1.69-0.33,2.43-0.79c0.58-0.36,1.15-0.74,1.75-1.06c0.74-0.41,1.53-0.45,2.33-0.15c0.23,0.09,0.47,0.15,0.7,0.25
	c0.87,0.39,1.77,0.52,2.72,0.34c0.18-0.03,0.37-0.02,0.55-0.01c0.26,0.02,0.48,0.15,0.62,0.36c0.19,0.32,0.37,0.65,0.49,1
	c0.08,0.23,0.07,0.49,0.1,0.74c0.13,1.02,0.39,1.28,1.45,1.26c1.61-0.03,3.21-0.1,4.82-0.16c1.67-0.07,3.34-0.15,5-0.22
	c1.67-0.07,3.34-0.15,5-0.22c0.31-0.01,0.62-0.04,0.93-0.05c4.39-0.17,8.77-0.32,13.16-0.5c4.51-0.18,9.02-0.4,13.53-0.58
	c1.98-0.08,3.96-0.12,5.93-0.21c1.05-0.04,2.1-0.12,3.15-0.2c0.32-0.02,0.58-0.18,0.75-0.48c0.03-0.05,0.06-0.11,0.09-0.16
	c0.52-1.06,1.44-1.38,2.49-1.2c1.42,0.24,2.83,0.2,4.25,0.19c8.47-0.03,16.94-0.06,25.41-0.09c0.8,0,1.61,0.03,2.41,0.03
	c0.31,0,0.61-0.06,0.85-0.3c0.04-0.04,0.11-0.12,0.1-0.15c-0.05-0.1-0.11-0.24-0.19-0.25c-0.42-0.07-0.86-0.07-1.28-0.16
	c-0.7-0.15-1.23-0.58-1.58-1.21c-0.31-0.55-0.52-1.13-0.52-1.78c0-0.37,0-0.76-0.07-1.12c-0.16-0.86-0.64-1.47-1.47-1.78
	c-0.65-0.24-1.32-0.28-2.01-0.29c-4.88-0.03-9.77-0.07-14.65-0.08c-3.09-0.01-6.18,0.02-9.27,0.03c-0.74,0-1.48-0.01-2.21-0.2
	c-0.88-0.23-1.4-0.78-1.5-1.69c-0.07-0.68-0.12-1.37-0.12-2.06c-0.03-4.26-0.05-8.52-0.06-12.78c0-0.56,0.05-1.13,0.1-1.68
	c0.07-0.73,0.41-1.3,1.03-1.7c0.16-0.1,0.33-0.18,0.49-0.27c0.48-0.28,0.69-0.7,0.63-1.25c-0.04-0.37-0.11-0.75-0.11-1.12
	c0-0.24,0.1-0.49,0.19-0.72c0.13-0.31,0.37-0.52,0.7-0.53c0.37-0.01,0.75-0.01,1.09,0.1c1.74,0.56,3.52,0.65,5.32,0.54
	c1.05-0.06,2.1-0.12,3.15-0.19c0.18-0.01,0.37-0.04,0.55-0.09c0.39-0.1,0.65-0.36,0.77-0.74c0.09-0.3,0.17-0.61,0.17-0.92
	c-0.01-3.14,0.47-6.24,0.73-9.36c0.12-1.44,0.19-2.87,0-4.31c-0.03-0.25-0.04-0.5-0.04-0.75c0.01-0.71,0.39-1.15,1.09-1.28
	c0.18-0.03,0.37-0.03,0.55-0.07c0.39-0.08,0.67-0.29,0.8-0.69c0.02-0.06,0.04-0.12,0.05-0.18c0.12-1.12,0.71-1.83,1.79-2.13
	c0.05-0.01,0.08-0.09,0.14-0.15c-0.18-0.66-0.62-1.05-1.29-1.15c-1.04-0.15-2.08-0.27-3.13-0.38c-1.15-0.12-1.93-0.74-2.47-1.74
	c-0.48-0.89-0.87-1.8-0.69-2.86c0.03-0.18,0-0.37-0.01-0.56c-0.02-0.37-0.4-0.73-0.75-0.66c-0.36,0.07-0.71,0.18-1.07,0.28
	c-0.06,0.02-0.11,0.06-0.17,0.08c-0.43,0.14-0.76-0.02-0.88-0.42c-0.22-0.72-0.37-1.46-0.41-2.21c-0.07-1.31-0.16-2.63-0.2-3.94
	c-0.02-0.66-0.22-1.2-0.62-1.72c-2.42-3.09-4.82-6.2-7.23-9.3c-16.16-20.83-32.31-41.67-48.47-62.5c-2.06-2.66-4.12-5.32-6.19-7.98
	c-2.11-2.7-4.02-5.56-5.97-8.38c-0.06-0.09-0.07-0.23-0.09-0.35c-0.02-0.11,0.26-0.19,0.48-0.13c0.3,0.08,0.6,0.15,0.89,0.24
	c2.84,0.85,5.68,1.71,8.52,2.57c10.83,3.28,21.65,6.56,32.48,9.84c0.58,0.18,1.15,0.44,1.82,0.37c0.04-0.26,0.09-0.51,0.1-0.75
	c0.02-0.63,0.01-1.25,0.01-1.88c0-16.48,0-32.95,0-49.43c0-2.82-0.33-2.55,2.44-2.55c69.19,0.01,138.38,0.02,207.56,0.02
	c2.91,0,5.81,0,8.72-0.04c2.97-0.04,5.93,0.13,8.89,0.35c1.29,0.1,2.57,0.34,3.86,0.52c1.96,0.29,3.92,0.45,5.91,0.28
	c3.05-0.26,5.75-1.35,8.19-3.19c1.19-0.9,2.28-1.93,3.25-3.07c0.73-0.85,1.45-1.71,2.11-2.62c8.02-11.14,16.48-21.92,24.96-32.7
	c3.04-3.87,6.04-7.77,9.11-11.63c2.09-2.63,4.26-5.2,6.41-7.8c0.15-0.19,0.35-0.34,0.56-0.48c0.05-0.03,0.28,0.06,0.29,0.12
	c0.15,1.24,0.31,2.48,0.42,3.73c0.2,2.37,0.28,4.75,0.28,7.13c0,12.9,0.04,25.81,0.03,38.71c0,4.45-0.11,8.89-0.18,13.34
	c-0.02,1.26,0.03,2.5,0.23,3.74c0.33,2.03,1.32,3.61,3.02,4.74c1.04,0.69,2.18,1.17,3.35,1.58c2.8,0.98,5.61,1.94,8.4,2.97
	c12.27,4.51,24.19,9.84,35.64,16.19c10.59,5.88,20.65,12.58,30.08,20.25c22.8,18.57,40.01,41.45,51.56,68.69
	c4.38,10.32,7.8,20.96,10.44,31.87c1.28,5.29,2.36,10.63,3.27,16c0.63,3.76,1.2,7.54,1.64,11.34c0.15,1.3,0.27,2.62,0.65,3.88
	c0.18,0.6,0.35,1.2,0.58,1.78c0.75,1.85,1.97,3.31,3.64,4.39c1.05,0.68,2.17,1.21,3.35,1.58c1.59,0.49,3.19,0.97,4.8,1.43
	c12.72,3.64,25.3,7.73,37.68,12.44c2.25,0.86,4.5,1.73,6.74,2.6C1238.5,505.56,1238.5,505.69,1238.5,505.81z M1158.97,504.43
	c-0.53-0.18-1-0.34-1.47-0.49c-2.83-0.88-5.67-1.76-8.5-2.64c-18.84-5.84-37.67-11.68-56.51-17.52
	c-19.96-6.18-39.92-12.36-59.88-18.54c-6.44-1.99-12.87-3.98-19.31-5.98c-0.47-0.15-0.94-0.3-1.39-0.5
	c-0.67-0.31-1.04-0.87-1.14-1.6c-0.05-0.37-0.05-0.75-0.06-1.12c-0.14-7.2-0.28-14.41-0.42-21.61c-0.03-1.57-0.06-3.13-0.1-4.7
	c-0.19-8.58-0.38-17.16-0.56-25.74c-0.18-9.02-0.35-18.04-0.52-27.06c-0.01-0.38-0.02-0.75-0.03-1.13
	c-0.19-8.2-0.38-16.41-0.55-24.61c-0.19-9.02-0.35-18.04-0.52-27.06c-0.01-0.5-0.02-1-0.04-1.5c-0.05-1.75-0.11-3.51-0.17-5.26
	c-0.05-1.39-0.31-1.66-1.7-2.05c-0.24-0.07-0.49-0.09-0.73-0.1c-0.25-0.01-0.49,0.03-0.67,0.24c-0.49,0.56-1,1.11-1.48,1.69
	c-12.68,15.3-25.36,30.61-38.04,45.92c-11.21,13.53-22.41,27.07-33.61,40.61c-5.92,7.15-11.83,14.31-17.75,21.46
	c-0.4,0.48-0.81,0.95-1.23,1.4c-0.54,0.58-1.22,0.8-2.01,0.77c-0.76-0.02-1.46-0.29-2.16-0.51c-7.38-2.29-14.76-4.59-22.14-6.88
	c-20.37-6.32-40.74-12.65-61.11-18.96c-16.83-5.22-33.66-10.43-50.49-15.64c-2.42-0.75-4.85-1.48-7.28-2.21
	c-0.29-0.09-0.6-0.17-0.9-0.18c-0.16-0.01-0.33,0.13-0.48,0.21c-0.05,0.03-0.08,0.09-0.11,0.15c-0.82,2.21-0.83,1.74,0.34,3.39
	c20.69,29.21,41.38,58.42,62.08,87.62c6.09,8.6,12.2,17.19,18.29,25.79c0.36,0.51,0.73,1.01,1.04,1.56
	c0.43,0.77,0.42,1.57-0.05,2.32c-0.33,0.53-0.71,1.03-1.08,1.53c-24.99,33.7-49.98,67.41-74.97,101.11
	c-3.12,4.21-6.24,8.41-9.35,12.62c-0.33,0.45-0.63,0.93-0.92,1.41c-0.04,0.07,0.03,0.22,0.07,0.32c0.02,0.04,0.11,0.07,0.16,0.06
	c0.43-0.08,0.85-0.15,1.27-0.26c2.93-0.75,5.87-1.5,8.8-2.26c12.93-3.33,25.85-6.66,38.78-9.98c11.01-2.83,22.03-5.64,33.05-8.46
	c10.12-2.59,20.23-5.19,30.35-7.8c10-2.57,19.99-5.15,29.99-7.72c2.51-0.65,5.03-1.29,7.54-1.93c0.32-0.08,0.61,0,0.83,0.26
	c0.96,1.14,1.93,2.28,2.89,3.43c12.06,14.44,24.12,28.89,36.18,43.33c11.86,14.2,23.72,28.41,35.58,42.61
	c6.71,8.03,13.42,16.07,20.13,24.1c0.28,0.33,0.58,0.65,0.88,0.96c0.04,0.04,0.13,0.06,0.17,0.04c0.1-0.05,0.26-0.12,0.27-0.2
	c0.08-0.56,0.16-1.11,0.18-1.67c0.16-4.63,0.31-9.27,0.47-13.9c0.02-0.56,0.04-1.13,0.06-1.69c0.19-4.82,0.39-9.64,0.56-14.46
	c0.19-5.2,0.35-10.39,0.52-15.59c0.01-0.31,0.03-0.63,0.04-0.94c0.19-4.94,0.39-9.89,0.57-14.83c0.18-5.13,0.34-10.27,0.51-15.4
	c0.01-0.31,0.03-0.63,0.04-0.94c0.19-4.94,0.39-9.89,0.56-14.83c0.18-5.2,0.34-10.39,0.51-15.59c0.01-0.25,0.02-0.5,0.03-0.75
	c0.19-5.07,0.39-10.14,0.57-15.21c0.17-4.95,0.32-9.89,0.49-14.84c0.01-0.25,0.01-0.5,0.03-0.75c0.02-0.25,0.05-0.5,0.1-0.74
	c0.13-0.66,0.48-1.16,1.1-1.41c0.69-0.28,1.39-0.52,2.09-0.76c11.31-3.81,22.63-7.6,33.94-11.41c25.2-8.49,50.39-16.97,75.58-25.47
	c10.31-3.48,20.62-6.97,30.93-10.46c0.53-0.18,1.05-0.36,1.56-0.58C1158.82,504.85,1158.86,504.63,1158.97,504.43z M1134.35,468.62
	c-0.08-2.5-0.47-5.22-0.95-7.94c-0.81-4.56-1.99-9.04-3.45-13.43c-2.6-7.8-6-15.22-10-22.38c-7.02-12.54-15.56-23.94-25.41-34.34
	c-7.04-7.43-14.64-14.2-22.95-20.15c-5.86-4.2-12-7.93-18.53-10.99c-5.62-2.63-11.43-4.72-17.51-5.98
	c-1.04-0.22-1.16-0.04-1.55,0.79c-0.25,0.53-0.3,1.08-0.3,1.64c0,2.07-0.01,4.13-0.01,6.2c-0.05,24.37-0.11,48.73,0.06,73.1
	c0,0.5,0.02,1,0.01,1.5c-0.01,0.77,0.21,1.48,0.6,2.14c0.19,0.32,0.39,0.64,0.62,0.93c1.11,1.39,2.44,2.45,4.12,3.08
	c3.18,1.2,6.41,2.28,9.66,3.26c7.16,2.16,14.33,4.3,21.48,6.47c20.82,6.31,41.64,12.64,62.46,18.95c1.88,0.57,1.91,0.81,1.77-1.47
	C1134.45,469.63,1134.41,469.26,1134.35,468.62z M1033.63,608.76c0,16.81,0.01,28.96-0.01,41.11c0,2.07,0.16,4.13,0.47,6.17
	c0.06,0.36,0.3,0.57,0.63,0.53c0.31-0.03,0.62-0.06,0.92-0.13c2.41-0.56,4.8-1.19,7.14-1.97c5.53-1.84,10.81-4.28,15.9-7.13
	c7.38-4.12,14.27-8.99,20.78-14.4c11.68-9.69,21.98-20.72,30.97-33c5.28-7.2,9.99-14.76,13.97-22.79c2.66-5.38,4.95-10.91,6.7-16.67
	c1.64-5.41,2.73-10.92,2.99-16.58c0.06-1.25,0.03-2.5,0.02-3.76c0-0.31-0.08-0.62-0.13-0.93c-0.04-0.23-0.3-0.42-0.54-0.41
	c-1.61,0.11-3.17,0.5-4.71,0.96c-12.07,3.65-24.13,7.33-36.19,10.97c-13.13,3.97-26.27,7.91-39.41,11.86
	c-4.56,1.37-9.12,2.72-13.68,4.07c-0.83,0.25-1.65,0.54-2.42,0.94c-1.95,1.02-3.09,2.63-3.37,4.85c-0.16,1.25-0.2,2.49-0.19,3.75
	C1033.53,588.62,1033.59,601.02,1033.63,608.76z M873.22,339.02C873.22,339.02,873.22,339.02,873.22,339.02
	c-8.16-0.01-16.32-0.01-24.48-0.01c-14.47,0-28.93,0-43.4-0.01c-3.28,0-6.55,0.07-9.83,0.25c-1.24,0.07-2.46,0.24-3.67,0.49
	c-0.78,0.16-1.56,0.42-2.29,0.74c-1.42,0.62-2.46,1.67-3.03,3.14c-0.25,0.64-0.48,1.29-0.61,1.96c-0.24,1.16-0.39,2.34-0.44,3.54
	c-0.14,3.7-0.08,7.39-0.02,11.09c0.01,0.44,0.03,0.88,0.09,1.31c0.3,2.26,1.38,3.99,3.41,5.05c0.44,0.23,0.89,0.44,1.35,0.61
	c0.63,0.24,1.28,0.46,1.93,0.66c2.9,0.88,5.8,1.75,8.7,2.63c18.74,5.71,37.49,11.4,56.23,17.15c13.36,4.09,26.69,8.26,40.04,12.39
	c0.94,0.29,1.9,0.55,2.87,0.74c2.34,0.48,4.42-0.1,6.18-1.74c0.68-0.63,1.3-1.35,1.87-2.08c1.46-1.87,2.87-3.77,4.31-5.65
	c10.25-13.27,20.5-26.53,30.76-39.79c2.75-3.55,5.49-7.1,8.05-10.79c0.25-0.36,0.49-0.72,0.73-1.09c0.12-0.19-0.07-0.55-0.29-0.56
	c-0.68-0.02-1.36-0.05-2.04-0.05C924.17,339.02,898.7,339.02,873.22,339.02z M871.2,670.82c0,0.03,0,0.05,0,0.08
	c23.13,0,46.25,0,69.38,0c2.23,0,4.45-0.04,6.68-0.09c1.11-0.03,2.22-0.13,3.33-0.21c0.18-0.01,0.35-0.09,0.53-0.15
	c0.14-0.04,0.19-0.16,0.15-0.3c-0.36-1.2-0.85-2.34-1.63-3.34c-0.58-0.74-1.14-1.48-1.72-2.22c-13.43-17.35-26.95-34.63-40.21-52.11
	c-0.26-0.35-0.53-0.69-0.81-1.03c-1.51-1.81-3.41-2.61-5.76-2.32c-1.05,0.13-2.06,0.4-3.07,0.7c-6.45,1.97-12.89,3.93-19.33,5.9
	c-21.58,6.6-43.16,13.19-64.73,19.8c-5.26,1.61-10.52,3.25-15.77,4.88c-1.77,0.55-3.52,1.17-5.23,1.91c-1.2,0.51-2.35,1.1-3.41,1.88
	c-1.4,1.02-2.38,2.35-2.96,3.99c-0.35,1.01-0.6,2.04-0.72,3.1c-0.19,1.74-0.39,3.48-0.41,5.24c-0.02,1.94-0.11,3.88-0.14,5.82
	c-0.01,0.94,0.03,1.88,0.11,2.81c0.06,0.62,0.2,1.23,0.38,1.83c0.5,1.68,1.62,2.79,3.24,3.36c0.7,0.24,1.41,0.44,2.16,0.51
	c1.66,0.16,3.33,0.23,5,0.23C821.24,670.99,846.22,670.9,871.2,670.82z M783.12,396.3c0.14-0.08,0.25-0.18,0.34-0.17
	c0.48,0.11,0.96,0.23,1.43,0.38c26.04,8.08,52.07,16.16,78.11,24.24c16.12,5,32.23,10.01,48.35,15.01c0.41,0.13,0.82,0.27,1.24,0.37
	c0.36,0.09,0.73,0.14,1.1,0.17c0.65,0.05,1.23-0.14,1.69-0.61c0.43-0.44,0.85-0.91,1.24-1.39c3.22-3.89,6.43-7.78,9.65-11.66
	c11.88-14.35,23.76-28.7,35.64-43.05c12.08-14.59,24.17-29.17,36.26-43.75c0.43-0.52,0.8-1.12,1.39-1.49
	c0.06-0.04,0.29,0.03,0.3,0.09c0.06,0.24,0.09,0.49,0.1,0.74c0.12,5.26,0.23,10.52,0.35,15.78c0.2,9.39,0.41,18.79,0.61,28.18
	c0.01,0.38,0.02,0.75,0.03,1.13c0.18,9.08,0.34,18.16,0.53,27.24c0.17,8.27,0.37,16.53,0.56,24.8c0.02,0.69,0.04,1.38,0.05,2.07
	c0.17,9.08,0.35,18.16,0.52,27.24c0.01,0.75-0.02,1.5,0.11,2.2c0.49,0.42,1.04,0.52,1.57,0.69c6.79,2.1,13.58,4.22,20.37,6.32
	c19.19,5.95,38.38,11.89,57.57,17.83c16.77,5.2,33.54,10.4,50.3,15.61c0.47,0.15,0.93,0.31,1.49,0.5c-0.18,0.18-0.28,0.34-0.41,0.39
	c-0.63,0.25-1.26,0.5-1.91,0.72c-14.41,4.87-28.82,9.73-43.24,14.59c-19.51,6.58-39.03,13.14-58.54,19.71
	c-7.21,2.43-14.41,4.86-21.62,7.29c-0.41,0.14-0.82,0.28-1.23,0.42c-1.06,0.36-1.61,1.08-1.64,2.23c-0.06,1.88-0.18,3.75-0.24,5.63
	c-0.18,5.32-0.34,10.64-0.52,15.96c-0.24,6.89-0.48,13.77-0.73,20.66c-0.17,4.63-0.36,9.26-0.54,13.89
	c-0.01,0.25-0.02,0.5-0.03,0.75c-0.17,5.26-0.33,10.52-0.52,15.78c-0.17,4.76-0.37,9.51-0.56,14.27c-0.01,0.25-0.02,0.5-0.03,0.75
	c-0.17,5.2-0.33,10.39-0.52,15.59c-0.17,4.82-0.38,9.64-0.56,14.46c-0.08,2.07-0.12,4.13-0.19,6.2c-0.02,0.56,0.02,1.13-0.24,1.65
	c-0.07,0.14-0.19,0.21-0.3,0.11c-0.32-0.29-0.65-0.57-0.92-0.9c-2.01-2.38-4-4.78-6-7.17c-14.09-16.88-28.19-33.76-42.28-50.65
	c-11.1-13.3-22.18-26.61-33.27-39.91c-0.64-0.77-1.28-1.53-1.94-2.28c-0.42-0.48-0.95-0.82-1.59-0.88c-0.36-0.04-0.74-0.02-1.1,0.05
	c-1.21,0.27-2.41,0.57-3.6,0.87c-17.72,4.55-35.43,9.11-53.15,13.67c-13.53,3.48-27.06,6.95-40.58,10.43
	c-10.95,2.82-21.91,5.64-32.86,8.46c-0.6,0.15-1.2,0.32-1.8,0.45c-0.17,0.04-0.36-0.03-0.54-0.04c0.02-0.51,0.36-0.81,0.62-1.15
	c1.77-2.41,3.56-4.81,5.34-7.21c23.24-31.35,46.49-62.7,69.73-94.05c0.37-0.5,0.74-1,1.08-1.53c0.48-0.75,0.48-1.54,0.02-2.3
	c-0.32-0.53-0.69-1.04-1.05-1.55c-7.25-10.22-14.51-20.44-21.76-30.67c-16.76-23.66-33.52-47.32-50.28-70.98
	C784.02,397.79,783.47,397.11,783.12,396.3z M988.81,642.4c0.01-0.51,0.03-1.07,0.03-1.63c-0.01-31.45,0.1-62.89-0.08-94.34
	c0-0.81,0.02-1.63,0.03-2.44c0.01-0.82,0.19-1.62,0.41-2.4c0.42-1.5,1.25-2.71,2.49-3.64c0.7-0.52,1.46-0.95,2.27-1.26
	c0.81-0.31,1.63-0.59,2.46-0.83c10.69-3.09,21.36-6.24,32-9.51c19.86-6.09,39.7-12.21,59.56-18.32c1.95-0.6,3.89-1.22,5.84-1.83
	c0.24-0.07,0.47-0.15,0.7-0.24c0.39-0.15,0.52-0.38,0.52-0.89c0-0.68-0.14-0.91-0.75-1.12c-2.29-0.77-4.56-1.57-6.86-2.28
	c-12.47-3.82-24.95-7.61-37.42-11.43c-17.73-5.42-35.48-10.79-53.27-16.03c-0.83-0.24-1.65-0.51-2.46-0.82
	c-0.87-0.33-1.69-0.76-2.45-1.31c-1.31-0.95-2.19-2.19-2.62-3.76c-0.24-0.85-0.4-1.71-0.41-2.59c0-1.13-0.02-2.25-0.01-3.38
	c0.17-29.19,0.08-58.38,0.05-87.57c0-1.13-0.05-2.25-0.12-3.38c-0.08-1.37-0.21-2.75-0.33-4.12c-0.04-0.43-0.11-0.87-0.19-1.3
	c-0.02-0.09-0.15-0.16-0.25-0.22c-0.04-0.02-0.13,0-0.17,0.04c-0.14,0.12-0.28,0.24-0.4,0.39c-1.94,2.36-3.92,4.68-5.8,7.09
	c-4.92,6.28-9.81,12.58-14.7,18.89c-10.26,13.26-20.52,26.51-30.77,39.79c-3.2,4.14-6.34,8.34-9.5,12.51
	c-0.75,0.99-1.53,1.97-2.43,2.83c-2.23,2.14-4.85,2.89-7.86,2.33c-1.4-0.26-2.77-0.65-4.12-1.09c-10.52-3.44-21.09-6.72-31.67-9.95
	c-21.58-6.58-43.17-13.12-64.81-19.5c-0.41-0.12-0.83-0.25-1.25-0.36c-0.18-0.05-0.36-0.09-0.54-0.11
	c-0.12-0.01-0.24,0.03-0.36,0.05c-0.13,0.03-0.13,0.28,0,0.48c2,2.94,3.96,5.9,6.14,8.71c5.65,7.29,11.28,14.6,16.92,21.9
	c12.65,16.38,25.32,32.74,38.13,48.98c0.46,0.59,0.94,1.17,1.34,1.8c0.43,0.68,0.84,1.39,1.17,2.13c0.58,1.3,0.68,2.65,0.25,4.03
	c-0.28,0.9-0.7,1.75-1.23,2.51c-0.6,0.87-1.25,1.71-1.9,2.54c-6.45,8.25-12.93,16.47-19.35,24.74
	c-11.57,14.92-23.1,29.88-34.67,44.8c-2.25,2.91-4.34,5.94-6.42,8.97c-0.14,0.2-0.23,0.43-0.35,0.65c0.16,0.06,0.28,0.15,0.37,0.13
	c0.42-0.08,0.84-0.18,1.27-0.28c2.71-0.64,5.42-1.24,8.08-2.05c10.11-3.09,20.23-6.15,30.33-9.24c14.9-4.56,29.79-9.12,44.68-13.7
	c5.2-1.6,10.39-3.22,15.58-4.85c1.25-0.39,2.51-0.67,3.8-0.8c2.06-0.2,3.93,0.29,5.55,1.62c0.62,0.51,1.19,1.1,1.73,1.69
	c0.46,0.5,0.86,1.07,1.27,1.62c3.6,4.78,7.16,9.59,10.8,14.34c16.07,20.98,32.3,41.83,48.71,62.54c0.23,0.29,0.47,0.58,0.7,0.87
	c0.27,0.34,0.6,0.38,1,0.27C987.94,642.96,988.43,642.87,988.81,642.4z M972.09,481.66c-3.25,3.26-6.5,6.53-9.75,9.79
	c-0.39,0.4-0.8,0.79-1.21,1.16c-0.44,0.39-0.98,0.5-1.56,0.45c-0.9-0.08-1.6-0.86-1.56-1.77c0.02-0.37,0.07-0.75,0.15-1.11
	c0.52-2.51,1.05-5.02,1.58-7.53c1.26-6.06,2.52-12.13,3.78-18.19c0.1-0.49,0.16-0.99,0.24-1.48c0.02-0.15-0.24-0.38-0.36-0.32
	c-0.34,0.15-0.68,0.29-1,0.47c-2.35,1.26-4.69,2.54-7.03,3.8c-0.38,0.21-0.76,0.42-1.16,0.58c-0.95,0.37-1.88,0.06-2.43-0.8
	c-0.3-0.47-0.56-0.97-0.83-1.47c-2.6-4.77-5.19-9.54-7.79-14.31c-0.27-0.49-0.56-0.97-0.84-1.46c-0.09-0.16-0.4-0.2-0.48-0.06
	c-0.29,0.48-0.59,0.95-0.86,1.44c-2.6,4.77-5.19,9.54-7.79,14.31c-0.3,0.55-0.59,1.1-0.93,1.62c-0.53,0.8-1.35,1.06-2.28,0.73
	c-0.46-0.17-0.9-0.41-1.34-0.64c-2.4-1.29-4.8-2.6-7.2-3.88c-0.26-0.14-0.56-0.23-0.85-0.32c-0.13-0.04-0.27,0.06-0.25,0.21
	c0.09,0.68,0.18,1.36,0.32,2.02c1.66,8.02,3.34,16.05,5.01,24.07c0.15,0.73,0.3,1.47,0.41,2.21c0.09,0.61-0.15,1.1-0.62,1.48
	c-0.62,0.51-1.62,0.6-2.25,0.13c-0.45-0.33-0.85-0.72-1.25-1.12c-3.3-3.3-6.59-6.61-9.88-9.92c-0.39-0.4-0.8-0.78-1.21-1.16
	c-0.16-0.15-0.52-0.05-0.62,0.17c-0.16,0.34-0.32,0.68-0.48,1.02c-0.62,1.36-1.24,2.73-1.86,4.09c-0.18,0.4-0.36,0.8-0.58,1.17
	c-0.38,0.65-0.99,0.94-1.72,0.91c-0.55-0.02-1.1-0.13-1.65-0.24c-2.73-0.54-5.45-1.11-8.18-1.65c-1.76-0.35-3.52-0.68-5.28-1.01
	c-0.18-0.03-0.37-0.05-0.54-0.01c-0.08,0.02-0.2,0.19-0.19,0.27c0.04,0.3,0.1,0.61,0.19,0.9c1.47,4.25,2.94,8.51,4.42,12.76
	c0.14,0.41,0.3,0.82,0.43,1.24c0.35,1.18,0.05,1.88-1.08,2.45c-0.33,0.17-0.67,0.31-1.01,0.46c-1.25,0.54-2.5,1.08-3.75,1.63
	c-0.28,0.12-0.56,0.27-0.82,0.44c-0.05,0.03-0.07,0.26-0.02,0.31c0.41,0.38,0.82,0.75,1.26,1.09c8.21,6.23,16.43,12.46,24.65,18.69
	c0.44,0.34,0.88,0.69,1.3,1.06c0.4,0.36,0.56,0.84,0.46,1.36c-0.09,0.49-0.25,0.97-0.42,1.43c-0.8,2.1-1.62,4.2-2.43,6.3
	c-0.11,0.29-0.18,0.59-0.27,0.89c-0.04,0.15,0.15,0.39,0.31,0.38c0.61-0.06,1.23-0.11,1.84-0.21c1.16-0.18,2.32-0.39,3.47-0.58
	c2.62-0.43,5.25-0.85,7.87-1.28c3.41-0.56,6.83-1.14,10.24-1.71c0.37-0.06,0.74-0.12,1.1-0.13c0.37-0.01,0.74,0,1.1,0.07
	c1.15,0.22,1.98,1.19,2.03,2.36c0.02,0.37-0.01,0.75-0.02,1.13c-0.13,2.5-0.26,5-0.4,7.51c-0.22,3.88-0.44,7.75-0.66,11.63
	c-0.05,0.94-0.09,1.88-0.12,2.82c-0.01,0.43,0.23,0.68,0.69,0.68c1.24,0.01,2.47,0.02,3.71,0.01c0.57-0.01,0.78-0.24,0.77-0.8
	c-0.02-0.69-0.05-1.38-0.09-2.06c-0.08-1.5-0.18-3-0.26-4.5c-0.04-0.69-0.07-1.38-0.11-2.06c-0.24-4.44-0.49-8.88-0.73-13.32
	c-0.02-0.44-0.01-0.88,0.02-1.31c0.03-0.52,0.27-0.96,0.62-1.33c0.55-0.58,1.24-0.85,2-0.81c0.8,0.04,1.6,0.16,2.39,0.28
	c1.95,0.31,3.9,0.63,5.85,0.96c2.62,0.43,5.24,0.86,7.87,1.3c2.56,0.42,5.12,0.86,7.68,1.27c0.42,0.07,0.85,0.04,1.28,0.04
	c0.15,0,0.22-0.12,0.2-0.26c-0.04-0.24-0.07-0.49-0.15-0.72c-0.78-2.04-1.58-4.08-2.36-6.12c-0.2-0.52-0.38-1.06-0.55-1.59
	c-0.19-0.6-0.02-1.13,0.4-1.55c0.4-0.39,0.85-0.72,1.3-1.06c8.26-6.27,16.53-12.53,24.8-18.8c0.35-0.26,0.7-0.52,1.02-0.81
	c0.12-0.11,0.15-0.31,0.23-0.51c-0.37-0.17-0.7-0.34-1.04-0.49c-1.36-0.6-2.72-1.19-4.08-1.79c-0.39-0.18-0.79-0.36-1.15-0.6
	c-0.44-0.3-0.65-0.76-0.62-1.29c0.02-0.31,0.07-0.62,0.16-0.92c0.12-0.42,0.28-0.83,0.43-1.24c1.45-4.19,2.91-8.39,4.35-12.58
	c0.1-0.29,0.18-0.59,0.26-0.89c0.04-0.14-0.18-0.4-0.32-0.39c-0.61,0.09-1.23,0.16-1.83,0.28c-4,0.8-8,1.61-11.99,2.42
	c-0.48,0.1-0.97,0.18-1.46,0.24c-0.96,0.12-1.67-0.26-2.14-1.15c-0.2-0.39-0.37-0.79-0.55-1.19c-0.7-1.53-1.39-3.07-2.1-4.6
	c-0.1-0.22-0.28-0.39-0.44-0.62C972.91,480.74,972.52,481.22,972.09,481.66z"/>
</svg>
